<svg xmlns="http://www.w3.org/2000/svg" viewBox="0 0 215.96 72"><defs><style>.cls-1{fill:#fff;}</style></defs><title>meilinkdesign_logo</title><g id="Laag_2" data-name="Laag 2"><g id="Grid"><g id="_Groep_" data-name="&lt;Groep&gt;"><path id="_Pad_" data-name="&lt;Pad&gt;" class="cls-1" d="M87.12,0H0V72H19V18H87.12c5.71,0,9.88,1.65,12.41,4.32,3.86,4.07,3.56,11.19,3.57,11.19l0,38.49H122V34.23c0-2.81.29-14.8-8.45-24.24C107.26,3.2,98.43,0,87.12,0Z"/><rect id="_Pad_2" data-name="&lt;Pad&gt;" class="cls-1" x="52" y="24" width="18" height="48"/><path id="_Pad_3" data-name="&lt;Pad&gt;" class="cls-1" d="M104.39,0h0a28.27,28.27,0,0,1,12.89,8.09,30.81,30.81,0,0,1,6.29,10s0-.13,0-.13h72.84c.07,9-3.07,20-7,23.93C182.19,49.15,173,51,171.48,51H126V72h46.85c4.34,0,17.25-2.91,30.09-15.75s13-39.34,13-46.89V0Z"/></g></g></g></svg>