<svg xmlns="http://www.w3.org/2000/svg" viewBox="0 0 215.96 91.89"><defs><style>.cls-1{fill:#fff;}</style></defs><title>meilinkdesign_logo_text</title><g id="Laag_2" data-name="Laag 2"><g id="Grid"><g id="_Groep_" data-name="&lt;Groep&gt;"><g id="_Groep_2" data-name="&lt;Groep&gt;"><path id="_Samengesteld_pad_" data-name="&lt;Samengesteld pad&gt;" class="cls-1" d="M7.42,89h.06l4.78-11.73h2.52V91.68h-2V80.87h-.06L8.16,91.68H6.75L2.09,80.5H2V91.68H0V77.25H2.66Z"/><path id="_Samengesteld_pad_2" data-name="&lt;Samengesteld pad&gt;" class="cls-1" d="M30.53,85H24.38v5.17h7.19v1.53H22.36V77.25h9.1v1.54H24.38v4.67h6.15Z"/><path id="_Samengesteld_pad_3" data-name="&lt;Samengesteld pad&gt;" class="cls-1" d="M40.78,91.68h-2V77.25h2Z"/><path id="_Samengesteld_pad_4" data-name="&lt;Samengesteld pad&gt;" class="cls-1" d="M51.08,90.16h7.3v1.53H49.05V77.25h2Z"/><path id="_Samengesteld_pad_5" data-name="&lt;Samengesteld pad&gt;" class="cls-1" d="M67.43,91.68h-2V77.25h2Z"/><path id="_Samengesteld_pad_6" data-name="&lt;Samengesteld pad&gt;" class="cls-1" d="M87,91.68H85l-7.2-11-.06,0v11h-2V77.25h2l7.2,11,.06,0v-11h2Z"/><path id="_Samengesteld_pad_7" data-name="&lt;Samengesteld pad&gt;" class="cls-1" d="M98.43,85.16H97.12v6.52h-2V77.25h2v6.38h1.11l5.55-6.38h2.28l0,0L100,84.13l6.49,7.5,0,0H104Z"/><path id="_Samengesteld_pad_8" data-name="&lt;Samengesteld pad&gt;" class="cls-1" d="M122.84,91.68V77.25h4.71A6.46,6.46,0,0,1,132.25,79a6,6,0,0,1,1.78,4.5v2a6,6,0,0,1-1.78,4.5,6.48,6.48,0,0,1-4.71,1.73Zm2-12.9V90.16h2.68a4.2,4.2,0,0,0,3.27-1.32,4.83,4.83,0,0,0,1.2-3.38v-2a4.81,4.81,0,0,0-1.2-3.36,4.2,4.2,0,0,0-3.27-1.32Z"/><path id="_Samengesteld_pad_9" data-name="&lt;Samengesteld pad&gt;" class="cls-1" d="M149.83,85h-6.15v5.17h7.19v1.53h-9.22V77.25h9.1v1.54h-7.08v4.67h6.15Z"/><path id="_Samengesteld_pad_10" data-name="&lt;Samengesteld pad&gt;" class="cls-1" d="M165.81,88a2.14,2.14,0,0,0-.73-1.65,6.18,6.18,0,0,0-2.57-1.13,8.69,8.69,0,0,1-3.56-1.61A3.32,3.32,0,0,1,157.67,81,3.51,3.51,0,0,1,159,78.17,5.45,5.45,0,0,1,162.62,77a5.34,5.34,0,0,1,3.77,1.29,3.86,3.86,0,0,1,1.36,3l0,.06h-1.93a2.62,2.62,0,0,0-.89-2,3.27,3.27,0,0,0-2.28-.8,3.19,3.19,0,0,0-2.17.66,2.19,2.19,0,0,0-.76,1.73,1.9,1.9,0,0,0,.83,1.57,7.76,7.76,0,0,0,2.69,1.11,7.73,7.73,0,0,1,3.44,1.67A3.56,3.56,0,0,1,167.83,88a3.33,3.33,0,0,1-1.42,2.81,6.06,6.06,0,0,1-3.71,1.06,6.47,6.47,0,0,1-3.83-1.17,3.52,3.52,0,0,1-1.61-3.13l0-.06h1.93a2.4,2.4,0,0,0,1.07,2.1,4.14,4.14,0,0,0,2.41.74,3.72,3.72,0,0,0,2.28-.62A2,2,0,0,0,165.81,88Z"/><path id="_Samengesteld_pad_11" data-name="&lt;Samengesteld pad&gt;" class="cls-1" d="M177.51,91.68h-2V77.25h2Z"/><path id="_Samengesteld_pad_12" data-name="&lt;Samengesteld pad&gt;" class="cls-1" d="M196.54,89.74a4.77,4.77,0,0,1-1.86,1.48,7.54,7.54,0,0,1-3.43.67A5.88,5.88,0,0,1,187,90.23,5.72,5.72,0,0,1,185.28,86V83a5.84,5.84,0,0,1,1.63-4.28A5.66,5.66,0,0,1,191.13,77a5.74,5.74,0,0,1,3.95,1.28,4,4,0,0,1,1.41,3.27l0,.06h-1.94a3,3,0,0,0-.88-2.2,3.41,3.41,0,0,0-2.51-.88,3.44,3.44,0,0,0-2.76,1.24,4.7,4.7,0,0,0-1,3.14v3a4.58,4.58,0,0,0,1.11,3.17,3.63,3.63,0,0,0,2.84,1.24,5.43,5.43,0,0,0,2.1-.33,3,3,0,0,0,1.16-.79V86h-3.39V84.47h5.42Z"/><path id="_Samengesteld_pad_13" data-name="&lt;Samengesteld pad&gt;" class="cls-1" d="M215.92,91.68h-2l-7.2-11-.06,0v11h-2V77.25h2l7.2,11,.06,0v-11h2Z"/></g><g id="_Groep_3" data-name="&lt;Groep&gt;"><path id="_Pad_" data-name="&lt;Pad&gt;" class="cls-1" d="M87.12,0H0V72H19V18H87.12c5.71,0,9.88,1.65,12.41,4.32,3.86,4.07,3.56,11.19,3.57,11.19l0,38.49H122V34.23c0-2.81.29-14.8-8.45-24.24C107.26,3.2,98.43,0,87.12,0Z"/><rect id="_Pad_2" data-name="&lt;Pad&gt;" class="cls-1" x="52" y="24" width="18" height="48"/><path id="_Pad_3" data-name="&lt;Pad&gt;" class="cls-1" d="M104.39,0h0a28.27,28.27,0,0,1,12.89,8.09,30.81,30.81,0,0,1,6.29,10s0-.13,0-.13h72.84c.07,9-3.07,20-7,23.93C182.19,49.15,173,51,171.48,51H126V72h46.85c4.34,0,17.25-2.91,30.09-15.75s13-39.34,13-46.89V0Z"/></g></g></g></g></svg>