<svg xmlns="http://www.w3.org/2000/svg" viewBox="0 0 93 80"><defs><style>.cls-1{fill:#333;}</style></defs><title>icoon webdesign</title><g id="Laag_2" data-name="Laag 2"><g id="laptop"><g id="_Groep_" data-name="&lt;Groep&gt;"><g id="_Groep_2" data-name="&lt;Groep&gt;"><g id="_Groep_3" data-name="&lt;Groep&gt;"><path id="_Pad_" data-name="&lt;Pad&gt;" class="cls-1" d="M62.32,77.3c-2-2-5.32-4.75-5.32-4.75v-2.7s.86-.85.3-.85H37.16c-.55,0-.16.85-.16.85v2.7s-3.08,2.75-5.08,4.75-.17,2.7-.17,2.7h31S64.32,79.31,62.32,77.3Z"/><path id="_Samengesteld_pad_" data-name="&lt;Samengesteld pad&gt;" class="cls-1" d="M93,3.82A3.82,3.82,0,0,0,89.18,0H3.82A3.82,3.82,0,0,0,0,3.82V62.18A3.82,3.82,0,0,0,3.82,66H89.18A3.82,3.82,0,0,0,93,62.18ZM89,54H5V5H89Z"/></g></g></g></g></g></svg>