<svg xmlns="http://www.w3.org/2000/svg" viewBox="0 0 115 115"><defs><style>.cls-1{fill:#333;}.cls-2{fill:none;stroke:#333;stroke-miterlimit:10;stroke-width:4px;}</style></defs><title>Icoon grafisch ontwerp zwart</title><g id="Laag_2" data-name="Laag 2"><g id="Laag_1-2" data-name="Laag 1"><g id="_Groep_" data-name="&lt;Groep&gt;"><g id="_Groep_2" data-name="&lt;Groep&gt;"><path id="_Pad_" data-name="&lt;Pad&gt;" class="cls-1" d="M89.43,34.31s-9.09-9.61-15.35-4.22,1.22,13,2.49,14.32S88,53.47,92.79,47.49,89.43,34.31,89.43,34.31Z"/><path id="_Samengesteld_pad_" data-name="&lt;Samengesteld pad&gt;" class="cls-1" d="M74.11,46.64c-1.13-1.17-6.35-6.5-6-11.83L68,34.67,50.66,52.47l-5,23.1,22.77-5.64L85.51,52.82C80.32,51.71,75.08,47.64,74.11,46.64ZM53.17,71.14a2.37,2.37,0,0,0-1-2.13,6.48,6.48,0,0,0-2.27-1.22l1.93-8.83a47.47,47.47,0,0,0,4.64,5.66,52.79,52.79,0,0,0,5.41,4.08Z"/><path id="_Pad_2" data-name="&lt;Pad&gt;" class="cls-1" d="M77.57,87.94H29.73V44.45l17.4-17.4H68.87l-3.81,5.44H51.7A3.49,3.49,0,0,0,48.21,36V46.63H37.54a3.47,3.47,0,0,0-3.47,3.47V82.51H72.13V72.72l5.44-5.41Z"/></g><rect id="_Pad_3" data-name="&lt;Pad&gt;" class="cls-2" x="2" y="2" width="111" height="111" rx="8.75" ry="8.75"/></g></g></g></svg>