<svg xmlns="http://www.w3.org/2000/svg" viewBox="0 0 111 111"><defs><style>.cls-1{fill:#333;}</style></defs><title>icoon social media</title><g id="Laag_2" data-name="Laag 2"><g id="Laag_1-2" data-name="Laag 1"><path id="_Samengesteld_pad_" data-name="&lt;Samengesteld pad&gt;" class="cls-1" d="M111,6.49A6.49,6.49,0,0,0,104.51,0h-98A6.49,6.49,0,0,0,0,6.49v98A6.49,6.49,0,0,0,6.49,111h98a6.49,6.49,0,0,0,6.49-6.49ZM94,35H85.27a9.53,9.53,0,0,0-5.78,2.95A7.65,7.65,0,0,0,77,43.75V53H94.22L91,70H77v41H59V70H45V53H59.44V40.56s-.58-6.75,4.28-14.46C69.26,17.31,79.08,17,79.08,17H94Z"/></g></g></svg>